<?xml version="1.0" encoding="utf-8"?>
<!-- Generator: Adobe Illustrator 23.0.2, SVG Export Plug-In . SVG Version: 6.00 Build 0)  -->
<svg version="1.1" id="Layer_1" xmlns="http://www.w3.org/2000/svg" xmlns:xlink="http://www.w3.org/1999/xlink" x="0px" y="0px"
	 viewBox="0 0 283.46 283.46" style="enable-background:new 0 0 283.46 283.46;" xml:space="preserve">
<style type="text/css">
	.st0{fill:#68217A;}
	.st1{fill:#40CCF4;}
</style>
<g>
	<g>
		<g>
			<path class="st0" d="M200.29,138.66c-2.53-1.86-5.78-2.79-9.81-2.79c-2.87,0-5.41,0.55-7.6,1.65c-2.21,1.09-4.13,2.57-5.79,4.43
				c-1.66,1.86-3.08,4.02-4.23,6.46c-1.17,2.45-2.11,5.02-2.8,7.66c-0.69,2.65-1.22,5.32-1.52,8.03c-0.3,2.71-0.49,5.28-0.49,7.7
				v42.35h-10.72v-86.58h10.72v18.51h0.35c1.02-3.15,2.3-5.98,3.85-8.49c1.55-2.51,3.33-4.62,5.37-6.35
				c2.03-1.71,4.23-3.03,6.63-3.93c2.38-0.9,4.92-1.35,7.55-1.35c1.76,0,3.33,0.12,4.7,0.34s2.63,0.56,3.76,1.01V138.66z"/>
			<path class="st0" d="M220.63,172.81c0.04,5.3,0.75,10.06,2.12,14.29c1.34,4.23,3.29,7.82,5.82,10.74
				c2.54,2.94,5.63,5.18,9.26,6.72c3.64,1.55,7.73,2.32,12.29,2.32c9.77,0,18.97-3.4,27.65-10.22v10.65
				c-8.28,5.92-18.31,8.88-30.1,8.88c-5.79,0-11.08-1.02-15.81-3.04c-4.74-2.03-8.76-4.97-12.08-8.83c-3.33-3.86-5.9-8.6-7.7-14.24
				c-1.81-5.63-2.7-12.06-2.7-19.28c0-6.48,0.97-12.49,2.94-18.01c1.99-5.53,4.73-10.3,8.22-14.32c3.49-4.04,7.63-7.19,12.42-9.48
				c4.8-2.28,10.04-3.42,15.72-3.42c5.6,0,10.52,0.98,14.82,2.92c4.28,1.94,7.88,4.72,10.76,8.32c2.9,3.61,5.14,8.01,6.64,13.19
				c1.53,5.19,2.29,10.99,2.29,17.42v5.41H220.63z M272.04,163.34c-0.17-9.01-2.32-16.01-6.44-20.97c-4.1-4.96-9.83-7.44-17.16-7.44
				c-3.66,0-7.05,0.65-10.2,1.94c-3.12,1.31-5.87,3.18-8.23,5.63c-2.37,2.46-4.32,5.44-5.87,8.97c-1.56,3.52-2.64,7.47-3.26,11.87
				H272.04z"/>
		</g>
		<path class="st0" d="M34.57,227.84c-16.29-16.3-24.1-37.85-23.66-59.31c-0.44-22.27,7.37-42.7,23.66-58.99
			c31.98-31.97,83.75-31.77,115.72,0.2l6.88-7.14c-17.92-17.92-41.59-27.01-65.14-27.01c-23.53,0-47.08,8.8-65,26.72
			C8.88,120.46-0.04,146.26,0.2,168.53c-0.24,24.16,8.68,48.39,26.84,66.55c17.92,17.92,41.46,26.88,65,26.88
			c23.55,0,47.21-9.01,65.14-26.93l-6.88-7.06C118.32,259.93,66.55,259.81,34.57,227.84z"/>
		<path class="st1" d="M91.06,201.62c-4.58,0-8.68-0.78-12.32-2.3c-3.64-1.52-6.75-3.69-9.3-6.47c-2.58-2.78-4.53-6.13-5.9-10.03
			c-1.37-3.89-2.06-8.21-2.06-12.96c0-5.14,0.72-9.73,2.17-13.8c1.45-4.05,3.5-7.48,6.17-10.33c2.67-2.83,5.9-4.98,9.67-6.47
			c3.78-1.49,7.98-2.22,12.65-2.22c4.46,0,8.48,0.73,12.05,2.19c3.58,1.47,6.6,3.58,9.09,6.36c2.49,2.77,4.4,6.15,5.74,10.12
			c1.31,3.97,1.98,8.5,1.98,13.55c0,4.82-0.69,9.21-2.07,13.16c-1.39,3.97-3.36,7.38-5.94,10.22c-2.57,2.85-5.69,5.06-9.39,6.61
			C99.9,200.83,95.73,201.62,91.06,201.62z"/>
	</g>
	<g>
		<path class="st0" d="M7.57,48.58V22.22h12.85v2.24h-10.4v9.67h9.63v2.21h-9.63v10.02h10.99v2.22H7.57z"/>
		<path class="st0" d="M38.82,48.58V37.74c0-4.25-1.54-6.38-4.63-6.38c-0.82,0-1.58,0.16-2.28,0.49c-0.7,0.33-1.3,0.78-1.81,1.35
			c-0.51,0.58-0.91,1.26-1.19,2.05c-0.29,0.79-0.43,1.64-0.43,2.56v10.77h-2.35V29.76h2.35v3.27h0.07c1.4-2.47,3.5-3.71,6.3-3.71
			c2.06,0,3.63,0.67,4.71,2c1.08,1.34,1.62,3.27,1.62,5.79v11.47H38.82z"/>
		<path class="st0" d="M54.92,48.36c-0.81,0.4-1.69,0.61-2.65,0.61c-3.04,0-4.56-1.75-4.56-5.26V31.82h-3.31v-2.06h3.31v-4.74
			l2.35-0.77v5.51h4.85v2.06h-4.85v11.52c0,1.27,0.21,2.19,0.62,2.76c0.42,0.56,1.12,0.85,2.11,0.85c0.74,0,1.44-0.22,2.11-0.66
			V48.36z"/>
		<path class="st0" d="M59.96,25c-0.45,0-0.85-0.16-1.18-0.48s-0.5-0.72-0.5-1.21c0-0.48,0.17-0.87,0.5-1.19
			c0.33-0.31,0.72-0.47,1.18-0.47c0.23,0,0.45,0.04,0.66,0.12c0.21,0.08,0.39,0.19,0.54,0.34c0.15,0.15,0.28,0.32,0.37,0.52
			c0.09,0.2,0.14,0.43,0.14,0.67c0,0.23-0.04,0.45-0.13,0.66s-0.21,0.39-0.37,0.54c-0.16,0.15-0.34,0.27-0.54,0.36
			C60.43,24.96,60.2,25,59.96,25z M58.8,48.58V29.76h2.35v18.82H58.8z"/>
		<path class="st0" d="M75.31,48.36c-0.81,0.4-1.69,0.61-2.65,0.61c-3.04,0-4.56-1.75-4.56-5.26V31.82h-3.31v-2.06h3.31v-4.74
			l2.35-0.77v5.51h4.85v2.06h-4.85v11.52c0,1.27,0.21,2.19,0.62,2.76s1.12,0.85,2.11,0.85c0.74,0,1.44-0.22,2.11-0.66V48.36z"/>
		<path class="st0" d="M84.64,52c-0.74,1.84-1.58,3.2-2.54,4.09c-0.96,0.89-2.11,1.33-3.47,1.33c-0.67,0-1.24-0.08-1.71-0.24v-2.21
			c0.27,0.1,0.54,0.17,0.82,0.22c0.27,0.05,0.55,0.07,0.84,0.07c0.77,0,1.44-0.24,2.01-0.73c0.57-0.48,1.06-1.22,1.48-2.2l1.64-3.86
			l-7.24-18.73h2.61l5.39,14.91c0.07,0.2,0.14,0.42,0.21,0.67c0.07,0.25,0.13,0.5,0.19,0.74h0.09c0.06-0.21,0.12-0.42,0.18-0.63
			c0.05-0.21,0.13-0.45,0.23-0.71l5.72-14.98h2.48L84.64,52z"/>
		<path class="st0" d="M109.95,24.47v9.93h9.63v2.22h-9.63v11.97h-2.44V22.22h12.85v2.24H109.95z"/>
		<path class="st0" d="M134.4,32.17c-0.55-0.4-1.26-0.61-2.13-0.61c-0.62,0-1.18,0.12-1.65,0.36c-0.48,0.24-0.9,0.56-1.26,0.97
			c-0.36,0.4-0.67,0.87-0.92,1.41c-0.25,0.53-0.45,1.09-0.61,1.66c-0.15,0.58-0.26,1.16-0.33,1.75c-0.07,0.59-0.1,1.15-0.1,1.67
			v9.21h-2.33V29.76h2.33v4.03h0.07c0.22-0.69,0.5-1.3,0.84-1.85c0.34-0.55,0.73-1.01,1.17-1.38c0.44-0.37,0.92-0.66,1.44-0.85
			c0.52-0.2,1.07-0.29,1.65-0.29c0.38,0,0.72,0.02,1.02,0.07c0.3,0.05,0.57,0.12,0.82,0.22V32.17z"/>
		<path class="st0" d="M148.66,48.58v-3.35h-0.07c-0.61,1.2-1.45,2.13-2.51,2.79c-1.06,0.66-2.26,0.99-3.59,0.99
			c-0.91,0-1.72-0.13-2.45-0.39c-0.73-0.26-1.35-0.62-1.86-1.09c-0.51-0.47-0.9-1.04-1.18-1.7c-0.28-0.66-0.41-1.39-0.41-2.19
			c0-1.7,0.53-3.06,1.58-4.07c1.05-1.01,2.65-1.67,4.78-1.98l5.72-0.83c0-3.61-1.4-5.42-4.21-5.42c-2.19,0-4.23,0.8-6.1,2.41v-2.57
			c0.39-0.28,0.84-0.54,1.33-0.76c0.5-0.23,1.02-0.42,1.57-0.59c0.55-0.17,1.12-0.29,1.7-0.39c0.58-0.09,1.15-0.14,1.7-0.14
			c2.1,0,3.68,0.59,4.75,1.76c1.07,1.18,1.61,2.93,1.61,5.26v12.24H148.66z M143.81,39.45c-0.85,0.12-1.57,0.28-2.17,0.46
			s-1.1,0.43-1.49,0.74c-0.39,0.31-0.68,0.7-0.86,1.16c-0.18,0.46-0.28,1.03-0.28,1.7c0,0.5,0.09,0.97,0.27,1.4
			c0.18,0.43,0.43,0.8,0.77,1.11c0.34,0.31,0.75,0.55,1.23,0.73c0.48,0.17,1.03,0.26,1.65,0.26c0.83,0,1.6-0.16,2.3-0.48
			c0.7-0.32,1.3-0.76,1.81-1.32c0.51-0.56,0.91-1.24,1.19-2.02c0.29-0.78,0.43-1.64,0.43-2.55v-1.86L143.81,39.45z"/>
		<path class="st0" d="M180.33,48.58V37.52c0-1.13-0.09-2.08-0.26-2.86c-0.17-0.78-0.44-1.41-0.8-1.9
			c-0.36-0.49-0.82-0.85-1.38-1.07c-0.56-0.22-1.22-0.33-1.99-0.33c-0.69,0-1.34,0.16-1.95,0.49c-0.61,0.33-1.15,0.77-1.61,1.34
			c-0.46,0.57-0.82,1.24-1.08,2.01c-0.26,0.77-0.4,1.61-0.4,2.5v10.88h-2.35v-11.3c0-3.95-1.51-5.92-4.54-5.92
			c-0.7,0-1.35,0.16-1.95,0.47c-0.6,0.31-1.12,0.75-1.57,1.31c-0.45,0.56-0.8,1.24-1.05,2.03c-0.25,0.79-0.38,1.66-0.38,2.62v10.79
			h-2.35V29.76h2.35v3.05h0.07c1.32-2.33,3.25-3.49,5.79-3.49c0.66,0,1.29,0.1,1.87,0.3c0.59,0.2,1.11,0.48,1.58,0.85
			c0.47,0.36,0.87,0.79,1.2,1.3c0.34,0.5,0.59,1.05,0.76,1.65c0.66-1.34,1.52-2.35,2.58-3.05c1.06-0.7,2.26-1.05,3.59-1.05
			c4.13,0,6.19,2.55,6.19,7.65v11.62H180.33z"/>
		<path class="st0" d="M189.47,39.59c0.01,1.15,0.17,2.19,0.46,3.11c0.29,0.92,0.72,1.7,1.27,2.33c0.55,0.64,1.22,1.12,2.01,1.46
			c0.79,0.34,1.68,0.51,2.67,0.51c2.12,0,4.12-0.74,6.01-2.22v2.32c-1.8,1.29-3.98,1.93-6.54,1.93c-1.26,0-2.41-0.22-3.44-0.66
			c-1.03-0.44-1.91-1.08-2.63-1.92c-0.72-0.84-1.28-1.87-1.67-3.1c-0.39-1.23-0.59-2.62-0.59-4.19c0-1.41,0.21-2.71,0.64-3.92
			c0.43-1.2,1.02-2.24,1.78-3.12c0.76-0.88,1.66-1.56,2.7-2.06c1.04-0.5,2.18-0.74,3.42-0.74c1.21,0,2.29,0.21,3.22,0.63
			c0.93,0.42,1.71,1.03,2.34,1.81c0.63,0.78,1.11,1.74,1.44,2.87c0.33,1.13,0.5,2.39,0.5,3.79v1.18H189.47z M200.64,37.53
			c-0.04-1.96-0.5-3.48-1.4-4.56c-0.89-1.08-2.14-1.62-3.73-1.62c-0.8,0-1.54,0.14-2.21,0.42c-0.68,0.28-1.28,0.69-1.79,1.22
			c-0.51,0.53-0.94,1.18-1.28,1.95c-0.34,0.77-0.57,1.63-0.71,2.58H200.64z"/>
		<path class="st0" d="M224.68,48.58h-2.35l-3.99-13.82c-0.12-0.43-0.22-0.99-0.29-1.67h-0.07c-0.02,0.18-0.06,0.41-0.12,0.68
			c-0.06,0.27-0.14,0.59-0.27,0.96l-4.39,13.86h-2.3l-5.7-18.82h2.52l4.14,14.59c0.12,0.43,0.21,0.97,0.26,1.64h0.15
			c0.02-0.22,0.06-0.47,0.12-0.75c0.05-0.28,0.13-0.58,0.23-0.9l4.56-14.58h1.95l4.08,14.61c0.11,0.42,0.2,0.96,0.28,1.64h0.15
			c-0.01-0.21,0.01-0.45,0.07-0.73c0.06-0.28,0.14-0.58,0.24-0.91l4.14-14.61h2.37L224.68,48.58z"/>
		<path class="st0" d="M241.61,49.02c-1.4,0-2.65-0.23-3.76-0.7c-1.11-0.47-2.06-1.12-2.84-1.98c-0.78-0.85-1.38-1.87-1.8-3.06
			c-0.42-1.19-0.62-2.51-0.62-3.95c0-1.57,0.22-2.97,0.66-4.21c0.44-1.24,1.07-2.29,1.88-3.15c0.82-0.86,1.8-1.52,2.95-1.98
			c1.15-0.45,2.44-0.68,3.86-0.68c1.36,0,2.59,0.22,3.68,0.67c1.09,0.45,2.02,1.09,2.78,1.94c0.76,0.85,1.34,1.87,1.75,3.09
			c0.4,1.21,0.61,2.59,0.61,4.14c0,1.47-0.21,2.81-0.63,4.02c-0.42,1.21-1.03,2.25-1.81,3.12c-0.78,0.87-1.74,1.54-2.87,2.02
			C244.31,48.78,243.03,49.02,241.61,49.02z M241.8,31.36c-1.03,0-1.96,0.18-2.79,0.53c-0.83,0.36-1.55,0.87-2.14,1.55
			c-0.59,0.68-1.05,1.51-1.37,2.5c-0.32,0.99-0.48,2.1-0.48,3.35c0,1.18,0.16,2.24,0.48,3.18s0.77,1.75,1.35,2.43
			c0.58,0.67,1.29,1.19,2.12,1.55c0.83,0.36,1.76,0.54,2.79,0.54c1.05,0,1.99-0.17,2.79-0.52c0.81-0.35,1.5-0.86,2.06-1.52
			c0.56-0.67,0.99-1.49,1.28-2.45c0.29-0.97,0.43-2.07,0.43-3.31c0-2.54-0.56-4.48-1.69-5.82C245.5,32.03,243.89,31.36,241.8,31.36z
			"/>
		<path class="st0" d="M264.83,32.17c-0.55-0.4-1.26-0.61-2.13-0.61c-0.62,0-1.18,0.12-1.65,0.36c-0.48,0.24-0.9,0.56-1.26,0.97
			c-0.36,0.4-0.67,0.87-0.92,1.41c-0.25,0.53-0.45,1.09-0.61,1.66c-0.15,0.58-0.26,1.16-0.33,1.75c-0.07,0.59-0.1,1.15-0.1,1.67
			v9.21h-2.33V29.76h2.33v4.03h0.07c0.22-0.69,0.5-1.3,0.84-1.85c0.34-0.55,0.73-1.01,1.17-1.38c0.44-0.37,0.92-0.66,1.44-0.85
			c0.52-0.2,1.07-0.29,1.65-0.29c0.38,0,0.72,0.02,1.02,0.07c0.3,0.05,0.57,0.12,0.82,0.22V32.17z"/>
		<path class="st0" d="M279.33,48.58l-8.66-9.17h-0.07v9.17h-2.35V20.72h2.35v17.81h0.07l8.22-8.77h3.07l-8.82,9.1l9.52,9.72H279.33
			z"/>
	</g>
</g>
</svg>
