<?xml version="1.0" encoding="utf-8"?>
<!-- Generator: Adobe Illustrator 23.0.2, SVG Export Plug-In . SVG Version: 6.00 Build 0)  -->
<svg version="1.1" id="Layer_1" xmlns="http://www.w3.org/2000/svg" xmlns:xlink="http://www.w3.org/1999/xlink" x="0px" y="0px"
	 viewBox="0 0 800 800" style="enable-background:new 0 0 800 800;" xml:space="preserve">
<style type="text/css">
	.st0{fill:url(#SVGID_1_);}
	.st1{fill:url(#SVGID_2_);}
	.st2{fill:url(#SVGID_3_);}
	.st3{fill:#FFFFFF;}
</style>
<g transform="matrix(.569 0 0 .569 199.451 -82.735)">
	
		<linearGradient id="SVGID_1_" gradientUnits="userSpaceOnUse" x1="-9988.1006" y1="7483.416" x2="-9147.3984" y2="6986.6577" gradientTransform="matrix(0.038 0 0 0.038 651.833 694.3345)">
		<stop  offset="0" style="stop-color:#909CA9"/>
		<stop  offset="1" style="stop-color:#EDEDEE"/>
	</linearGradient>
	<path class="st0" d="M602.68,641.98l-155.27,50.7L312.33,752.3l-37.79,9.98c-9.62,9.15-19.72,18.43-30.63,27.82
		c-11.97,10.33-23.12,19.72-31.69,26.52c-9.51,7.51-23.59,21.59-30.75,30.51c-10.68,13.38-19.13,27.58-22.77,38.5
		c-6.46,19.72-3.29,39.67,9.15,58.1c15.96,23.47,47.77,47.41,84.85,63.73c18.9,8.33,50.7,19.01,74.64,25
		c39.78,10.09,116.77,21.01,159.14,22.65c8.57,0.35,20.07,0.35,20.54,0c0.94-0.59,7.51-13.15,15.14-28.75
		c26.05-53.17,44.83-103.05,55.04-145.65c6.1-25.82,10.91-60.21,14.08-100.93c0.82-11.38,1.17-49.53,0.47-62.44
		c-1.06-21.12-2.93-38.26-5.87-55.04c-0.47-2.47-0.59-4.7-0.35-4.81c0.47-0.35,1.88-0.82,21.01-6.34L602.68,641.98L602.68,641.98
		L602.68,641.98L602.68,641.98z M567.24,662.75c1.41,0,5.16,36.03,6.1,58.8c0.24,4.81,0.12,7.98-0.12,7.98
		c-0.94,0-19.83-11.15-33.33-19.6c-11.74-7.39-34.03-22.18-37.56-25c-1.18-0.82-1.06-0.94,8.57-4.23
		C527.22,675.19,565.95,662.75,567.24,662.75z M488.14,688.81c1.06,0,3.75,1.52,10.21,5.52c24.18,15.14,57.04,33.45,71.12,39.55
		c4.34,1.88,4.81,1.17-5.16,7.98c-21.36,14.55-48,28.87-80.63,43.31c-5.75,2.58-10.56,4.58-10.68,4.58c-0.23,0,0.47-2.93,1.41-6.45
		c7.86-29.23,12.32-58.8,12.56-82.51c0.12-11.74,0.12-11.74,1.17-12.09C487.9,688.81,488.02,688.81,488.14,688.81L488.14,688.81z
		 M471.83,695.03c0.7,0.7,0.23,26.99-0.71,34.15c-2.11,17.14-5.4,33.1-10.8,51.05c-1.29,4.34-2.47,7.98-2.7,8.21
		c-0.47,0.59-16.55-15.14-21.83-21.24c-9.15-10.56-16.31-21.13-21.59-31.45c-2.7-5.28-6.92-15.61-6.57-15.96
		C409.51,718.5,471.36,694.56,471.83,695.03L471.83,695.03z M395.07,725.19c0.12,0,0.23,0,0.35,0.12c0.23,0.23,1.06,2.11,1.76,4.23
		c3.75,10.21,12.2,25.23,19.48,34.86c7.98,10.56,18.43,21.83,27.11,29.22c2.82,2.35,5.4,4.58,5.75,4.93
		c0.71,0.7,0.94,0.59-18.19,7.86c-22.18,8.45-46.36,16.9-74.05,25.82c-6.62,2.13-13.23,4.28-19.83,6.46
		c-1.06,0.35-0.71-0.23,2.35-5.05c13.73-21.48,34.62-63.61,46.36-93.42c2-5.16,3.99-10.33,4.34-11.5c0.47-1.64,1.06-2.23,2.58-3.05
		C393.9,725.42,394.72,725.19,395.07,725.19L395.07,725.19z M371.6,734.93c0.35,0.24-5.63,12.79-11.5,24.29
		c-11.38,22.18-23.82,44.01-40.49,70.53c-2.82,4.58-5.51,8.8-5.87,9.27c-0.59,0.82-0.82,0.59-2.7-3.05
		c-3.99-7.86-7.28-17.96-9.04-27.23c-1.76-9.15-1.41-25.11,0.59-34.97c1.52-7.28,1.41-7.16,4.93-8.92
		C322.54,757.23,371.13,734.46,371.6,734.93L371.6,734.93z M574.05,743.14v4.93c0,26.17-2.82,62.08-6.93,88.26
		c-0.7,4.58-1.29,8.33-1.41,8.45c0,0-3.4-0.94-7.39-2.11c-17.6-5.52-36.73-13.61-53.99-23.12c-11.39-6.22-27.93-16.43-27.46-16.9
		c0.12-0.12,5.05-2.7,10.8-5.75c23.01-11.97,45.07-24.88,64.2-37.67c7.16-4.81,17.95-12.56,20.3-14.67L574.05,743.14L574.05,743.14z
		 M282.99,777.88c0.47,0,0.35,0.94-0.35,5.16c-0.47,3.05-1.06,8.69-1.29,12.56c-0.94,17.14,1.88,29.81,10.33,47.18
		c2.35,4.81,4.23,8.8,4.11,8.92c-0.82,0.71-78.51,23.47-102.93,30.16c-7.28,1.99-13.61,3.76-14.08,3.87
		c-0.82,0.24-0.94,0.12-0.59-1.88c2.7-17.25,15.84-39.78,34.15-58.8c12.21-12.67,21.95-20.07,38.61-29.58
		c11.97-6.81,30.4-17.01,31.8-17.49C282.76,777.88,282.87,777.88,282.99,777.88L282.99,777.88z M466.08,810.63
		c0.12-0.12,2.93,1.41,6.34,3.4c25.12,14.55,60.09,28.05,89.9,34.97l2.7,0.59l-3.76,2.11c-15.61,8.69-66.9,30.04-119.35,49.65
		c-7.63,2.82-15.14,5.63-16.55,6.22c-1.41,0.59-2.7,0.94-2.7,0.82c0-0.12,2.11-4.23,4.81-9.27c14.67-27.46,29.46-60.91,36.97-84.15
		C465.37,812.74,465.96,810.74,466.08,810.63L466.08,810.63z M447.41,816.73c0.12,0.12-0.82,2.58-2,5.4
		c-10.21,24.76-23.59,51.76-40.72,82.04c-4.34,7.75-7.98,13.97-8.1,13.97c-0.12,0-3.64-2.11-7.86-4.7
		c-24.88-15.26-46.95-34.03-61.38-52.23l-2.11-2.58l10.68-2.93c38.26-10.44,70.77-21.71,103.04-35.56
		C443.54,818.26,447.3,816.73,447.41,816.73z M563.37,857.22C563.37,857.22,563.49,857.34,563.37,857.22
		c0.12,2.7-5.87,26.88-10.8,44.36c-4.11,14.67-7.63,26.17-14.08,46.47c-2.82,8.92-5.28,16.31-5.4,16.31c-0.12,0-0.82-0.12-1.53-0.35
		c-34.86-6.34-66.07-15.14-95.41-26.88c-8.22-3.29-19.95-8.57-20.66-9.15c-0.23-0.24,6.81-3.52,15.73-7.39
		c53.4-23.35,108.79-49.88,127.81-61.26C561.25,857.92,563.02,857.22,563.37,857.22L563.37,857.22z M295.67,866.37
		c0.23,0.23-14.67,21.71-35.56,50.93c-7.28,10.21-15.73,22.18-18.89,26.64c-3.17,4.46-7.98,11.5-10.68,15.73l-4.93,7.63l-5.28-4.46
		c-6.22-5.17-17.02-16.2-21.83-22.3c-10.09-12.56-16.9-25.82-19.6-37.91c-1.29-5.63-1.29-8.45-0.12-8.8
		c1.76-0.47,33.1-7.86,62.44-14.67c16.31-3.75,35.21-8.21,42.01-9.86C290.03,867.66,295.55,866.37,295.67,866.37L295.67,866.37z
		 M310.69,872.12l3.75,4.22c16.9,18.9,34.15,32.86,55.04,45.07c3.76,2.11,6.57,3.99,6.34,4.11c-0.82,0.59-72.53,26.05-105.74,37.55
		c-18.66,6.57-34.03,11.85-34.15,11.85c-0.12,0-1.17-0.7-2.35-1.53l-2.11-1.53l3.4-4.93c11.03-15.96,24.88-33.45,55.04-69.83
		L310.69,872.12L310.69,872.12z M404.34,939.14c0.12-0.12,5.28,1.76,11.62,4.11c15.26,5.75,27.35,9.39,43.54,13.5
		c19.95,5.05,48.82,9.98,65.84,11.38c2.58,0.23,3.99,0.47,3.52,0.82c-0.82,0.47-18.07,6.22-30.75,10.21
		c-20.19,6.34-81.8,24.53-132.03,38.96c-9.27,2.7-17.25,4.93-17.72,5.05c-1.17,0.24-5.05-0.82-5.05-1.29c0-0.23,2.82-3.87,6.22-7.86
		c16.9-20.19,33.68-42.72,47.65-64.08C401.06,944.07,404.34,939.25,404.34,939.14L404.34,939.14z M383.69,939.73
		c0.12,0.12-8.21,13.5-22.77,36.5c-6.22,9.74-13.15,20.77-15.61,24.65c-2.35,3.76-5.87,9.62-7.86,12.91l-3.4,5.99l-1.76-0.47
		c-4.23-1.17-33.92-11.62-41.78-14.79c-9.74-3.87-19.83-8.57-27.35-12.56c-9.39-5.05-21.12-12.56-20.19-12.79
		c0.23-0.12,16.31-4.46,35.68-9.74c51.41-13.97,79.92-22.06,98.59-27.93C380.64,940.43,383.57,939.61,383.69,939.73L383.69,939.73z
		 M529.8,973.99h0.12c0.47,1.17-18.54,53.99-25.47,70.65c-1.52,3.76-2.11,4.7-2.93,4.58c-2-0.12-29.57-3.99-46.36-6.45
		c-29.22-4.46-78.28-13.03-90.6-15.84l-2.82-0.59l17.48-3.99c37.56-8.45,55.63-13.03,73.94-18.66
		c23.12-7.04,46.01-15.84,69.13-26.64C525.93,975.4,528.98,974.11,529.8,973.99L529.8,973.99z"/>
	
		<linearGradient id="SVGID_2_" gradientUnits="userSpaceOnUse" x1="-9954.9375" y1="-8970.873" x2="-9278.4863" y2="-8970.873" gradientTransform="matrix(0.038 0 0 0.038 651.833 694.3345)">
		<stop  offset="0" style="stop-color:#939FAB"/>
		<stop  offset="1" style="stop-color:#DCDEE1"/>
	</linearGradient>
	<path class="st1" d="M442.6,280.03c-2.58-0.35-44.25,14.67-71.12,25.59c-36.27,14.79-64.43,28.87-81.8,41.08
		c-6.45,4.58-14.55,12.68-15.84,15.84c-0.47,1.17-0.71,2.58-0.71,3.99l15.73,14.91l37.44,11.97l89.08,15.96l101.87,17.49l1.06-8.8
		c-0.35,0-0.59-0.12-0.94-0.12l-13.38-2.11l-2.7-4.81c-13.85-24.41-29.11-54.69-38.03-75.11c-6.92-15.84-13.5-34.15-17.14-47.3
		C444.13,280.62,443.9,280.15,442.6,280.03L442.6,280.03L442.6,280.03L442.6,280.03z M440.72,286.02h0.12
		c0.12,0.12,0.59,3.4,1.06,7.27c1.99,16.43,5.63,32.27,11.38,49.41c4.34,12.91,4.34,12.21-0.7,10.68
		c-11.97-3.29-65.6-12.56-104.45-17.96c-6.22-0.82-11.5-1.64-11.5-1.76c-0.47-0.47,28.05-15.38,40.61-21.24
		C393.31,305.03,437.44,286.61,440.72,286.02z M327.59,338.6l4.58,1.52c24.88,8.45,87.43,20.42,121.94,23.24
		c3.87,0.35,7.16,0.71,7.27,0.71c0.12,0.12-3.17,1.88-7.39,3.87c-16.66,8.33-34.97,18.54-47.65,26.41
		c-3.75,2.35-7.16,4.23-7.63,4.23c-0.47,0-2.93-0.47-5.52-0.82l-4.69-0.71l-11.73-11.5c-20.66-20.07-36.85-35.56-43.07-41.43
		L327.59,338.6z M322.89,342.24l16.55,20.66c9.04,11.38,18.19,22.53,20.19,25c1.99,2.47,3.64,4.46,3.52,4.58
		c-0.47,0.35-23.94-4.23-36.38-7.04c-12.79-2.93-18.07-4.34-25.94-6.81l-6.46-2.11v-1.64c0.12-7.86,10.09-19.6,26.99-31.57
		C321.37,343.29,322.89,342.24,322.89,342.24z M463.49,370.4c0.47,0,1.06,1.06,2.46,4.22c3.99,8.8,16.43,32.51,19.48,37.09
		c0.94,1.53,2.58,1.64-13.96-1.06c-39.78-6.46-52.58-8.57-52.58-8.8c0-0.12,1.17-0.94,2.7-1.76c12.32-6.81,24.76-15.49,35.8-24.76
		c2.7-2.23,5.16-4.34,5.63-4.7C463.14,370.4,463.38,370.29,463.49,370.4z"/>
	
		<radialGradient id="SVGID_3_" cx="-21517.666" cy="-15389.749" r="898.12" gradientTransform="matrix(-0.0365 -5.481365e-03 0.0111 -0.073 -113.0907 -680.7186)" gradientUnits="userSpaceOnUse">
		<stop  offset="0" style="stop-color:#EE352C"/>
		<stop  offset="1" style="stop-color:#A91D22"/>
	</radialGradient>
	<path class="st2" d="M274.66,360.9c0,0-2.58,4.11-0.12,10.21c1.53,3.75,5.99,8.33,11.03,13.03c0,0,52.23,50.93,58.56,58.21
		c28.87,33.33,41.43,66.19,42.6,111.49c0.7,29.11-4.81,54.69-18.54,84.38c-24.41,53.28-75.93,112.08-155.39,177.33l11.62-3.87
		c7.51-5.63,17.72-11.62,41.66-24.76c55.28-30.28,117.48-58.1,193.76-86.73c109.85-41.31,290.47-89.67,393.28-105.39l10.68-1.64
		l-1.64-2.58c-9.39-14.55-15.84-23.59-23.59-33.21c-22.53-27.93-49.88-50.58-83.33-69.36c-46.01-25.7-105.51-45.77-180.85-60.67
		c-14.2-2.82-45.42-8.22-70.77-12.09c-53.75-8.33-88.49-14.08-126.75-20.65c-13.73-2.35-34.27-5.87-47.88-8.8
		c-7.04-1.53-20.54-4.7-31.1-8.33C289.45,374.16,277.24,370.87,274.66,360.9L274.66,360.9z M304.94,390.24
		c0.12-0.12,1.99,0.59,4.46,1.41c4.46,1.52,10.21,3.29,17.02,5.16c5.15,1.42,10.31,2.79,15.49,4.11c7.04,1.76,12.91,3.4,13.03,3.4
		c0.82,0.82,12.68,38.73,16.67,53.28c1.52,5.52,2.7,10.21,2.58,10.21c-0.12,0.12-1.41-1.88-2.93-4.58
		c-13.73-24.18-35.44-48.71-60.56-68.42C307.4,392.47,304.94,390.35,304.94,390.24z M362.68,406.2c0.59,0,3.17,0.35,6.34,1.06
		c19.95,4.46,55.75,11.27,78.63,15.14c3.87,0.59,6.93,1.29,6.93,1.53c0,0.24-1.41,1.06-3.17,2c-3.87,1.99-19.48,11.27-24.64,14.79
		c-13.03,8.68-24.76,18.07-33.21,26.52c-3.4,3.4-6.34,6.22-6.34,6.22s-0.7-1.99-1.29-4.46c-4.22-16.31-13.03-40.49-21.01-57.51
		c-1.29-2.7-2.35-5.16-2.35-5.4C362.56,406.32,362.56,406.2,362.68,406.2L362.68,406.2z M464.31,425.56
		c0.7,0.23,1.88,4.22,4.22,13.03c4.34,17.02,6.34,36.03,5.63,53.75c-0.24,4.93-0.47,9.51-0.71,10.09l-0.35,1.17l-6.1-1.99
		c-12.56-3.99-32.98-9.98-50.46-14.91c-9.98-2.7-18.07-5.16-18.07-5.4c0-0.71,14.55-15.26,20.77-20.77
		C431.1,450.09,463.26,425.21,464.31,425.56L464.31,425.56z M472.41,426.74c0.35-0.35,48.59,7.98,70.53,12.21
		c16.31,3.17,40.02,8.1,41.43,8.69c0.7,0.23-1.76,1.64-9.62,5.16c-30.98,13.97-53.99,26.52-76.87,41.78
		c-5.99,3.99-11.03,7.28-11.15,7.28c-0.12,0-0.23-3.4-0.23-7.51c0-22.3-4.46-44.83-12.68-63.84
		C473,428.61,472.29,426.85,472.41,426.74z M597.17,451.38c0.35,0.35-1.17,9.86-2.58,15.49c-4.22,17.49-15.61,43.43-29.57,67.84
		c-2.47,4.34-4.7,7.86-4.93,7.98c-0.23,0.12-3.4-1.64-7.04-3.76c-13.61-7.98-29.1-15.49-46.01-22.53c-4.69-1.99-8.8-3.64-8.92-3.87
		c-0.82-0.71,36.97-25.7,56.92-37.67C570.88,465.23,596.7,450.91,597.17,451.38z M606.09,452.79c1.06,0,22.42,5.87,33.56,9.15
		c27.58,8.22,59.27,19.83,79.92,29.22l8.57,3.87l-5.98,1.41c-50.46,11.62-93.65,25-135.32,41.9c-3.4,1.41-6.46,2.58-6.69,2.58
		c-0.24,0,0.94-2.7,2.46-5.99c12.56-26.64,20.66-54.46,22.65-78.16C605.38,454.55,605.73,452.79,606.09,452.79L606.09,452.79z
		 M393.43,501.61c0.35-0.35,16.67,3.52,25.47,5.98c13.38,3.76,41.78,13.26,41.78,13.97c0,0.12-3.17,2.82-6.92,6.1
		c-15.37,12.79-30.16,26.29-47.89,43.42c-5.28,5.05-9.74,9.16-9.97,9.16c-0.24,0-0.35-0.71-0.24-1.64
		c2.7-19.72,2.11-45.07-1.64-70.77C393.66,504.55,393.31,501.73,393.43,501.61z M736.24,501.97c0.23,0.23-7.51,12.44-12.44,19.36
		c-7.04,10.09-17.37,23.47-40.73,52.81c-12.32,15.49-26.17,32.98-30.75,38.85c-4.7,5.87-8.57,10.8-8.69,10.8
		c-0.12,0-1.64-2.11-3.28-4.69c-13.15-19.72-28.87-36.97-47.53-52.46c-3.52-2.93-7.39-6.1-8.68-7.04c-1.29-0.94-2.35-1.88-2.35-1.99
		c0-0.35,19.95-8.92,35.09-15.02c26.52-10.8,62.67-23.71,89.78-32.04C720.87,506.07,736.01,501.73,736.24,501.97L736.24,501.97z
		 M745.28,504.31c0.47-0.12,3.29,1.29,6.69,3.29c28.52,16.31,56.45,37.32,78.52,58.92c6.22,6.1,21.59,22.06,21.36,22.18
		c0,0-5.4,0.47-11.73,0.94c-49.41,3.76-112.67,14.2-173.46,28.87c-4.11,0.94-7.74,1.76-7.98,1.76c-0.23,0,4.34-4.58,10.09-10.09
		c35.68-34.39,51.99-56.1,71.24-94.83C742.7,509.59,745.04,504.67,745.28,504.31C745.16,504.31,745.16,504.31,745.28,504.31
		L745.28,504.31z M483.91,531.07c1.64,0.35,16.9,7.51,28.4,13.26c10.56,5.28,26.41,13.73,27.23,14.43
		c0.12,0.12-5.52,3.05-12.44,6.46c-22.07,11.03-40.96,21.48-60.68,33.45c-5.63,3.4-10.33,6.22-10.44,6.22
		c-0.47,0-0.35-0.47,2.82-6.22c10.56-19.25,19.01-42.25,23.83-64.67C483.09,532.24,483.56,531.07,483.91,531.07L483.91,531.07z
		 M468.66,533.89c0.35,0.35-3.64,14.79-6.1,22.65c-4.81,14.91-12.91,33.57-20.77,47.65c-1.88,3.28-4.7,8.1-6.22,10.8l-2.93,4.69
		l-6.57-6.34c-7.63-7.39-13.85-11.97-21.83-16.08c-3.17-1.64-5.63-3.05-5.63-3.28c0-0.94,20.07-19.13,35.44-32.27
		C445.07,552.2,468.3,533.54,468.66,533.89L468.66,533.89z M561.96,572.27l5.75,3.75c13.14,8.57,28.63,19.95,40.49,29.93
		c6.69,5.51,19.6,17.14,22.18,19.95l1.41,1.53l-9.5,2.7c-53.75,14.9-95.3,28.17-143.77,46.01c-5.4,1.99-9.98,3.64-10.33,3.64
		c-0.7,0-1.29,0.59,10.8-10.56c30.98-28.52,58.45-59.97,78.87-90.6L561.96,572.27L561.96,572.27z M537.43,578.37
		c0.23,0.23-15.84,22.88-25.47,35.68c-11.5,15.26-31.92,40.84-46.01,57.51c-5.87,6.93-10.91,12.68-11.15,12.79
		c-0.35,0.12-0.47-1.64-0.47-4.34c0-14.2-3.64-29.34-9.98-42.25c-2.7-5.4-3.17-6.69-2.58-7.28c2.23-2,36.38-21.48,57.97-33.1
		C514.31,589.63,537.08,578.13,537.43,578.37L537.43,578.37z M389.09,614.75c0.35,0,3.05,1.41,6.1,3.05
		c7.51,4.11,14.2,8.68,20.19,13.61c0.23,0.23-2.82,2.7-6.81,5.63c-11.15,7.98-28.05,20.77-37.91,28.64
		c-10.33,8.22-10.68,8.45-9.51,6.69c7.75-11.85,11.62-18.54,15.73-27.11c3.64-7.63,7.27-16.67,9.86-24.53
		C387.68,617.33,388.85,614.75,389.09,614.75L389.09,614.75z M428.64,645.73c0.59-0.12,1.29,0.94,4.46,5.63
		c6.69,9.97,11.85,23.35,13.15,34.15l0.23,2.35l-16.08,6.22c-28.76,11.15-55.28,22.18-73.24,30.39c-5.05,2.35-13.85,6.57-19.6,9.39
		c-5.75,2.93-10.45,5.16-10.45,5.05c0-0.12,3.64-2.82,8.1-6.1c35.09-25.47,65.49-53.4,88.26-81.33c2.47-2.93,4.7-5.63,4.93-5.75
		L428.64,645.73L428.64,645.73z M410.45,650.19c0.47,0.47-12.91,15.61-22.06,24.88c-22.65,23.12-45.07,41.2-72.88,58.8
		c-3.52,2.23-6.69,4.22-7.04,4.46c-0.82,0.47,0.23-0.71,12.44-13.97c7.75-8.33,13.61-15.37,20.3-24.06
		c4.46-5.75,5.28-6.57,11.74-11.15C370.19,676.72,409.98,649.72,410.45,650.19z"/>
</g>
<path class="st3" d="M143.82,563.73c-1.23,0-2.46,0.12-3.69,0.12c-24.88,1.33-41.66,12.28-51.48,33.66
	c-8.39,19.34-7.48,44.62,0.09,64.08c8.8,19.01,23.03,29.05,46.77,32.84c5.02,0.82,8.39,3.58,18.12,14.94l11.97,14.03h21.71
	l-14.44-14.55c-7.98-7.98-14.44-14.93-14.44-15.54c0-0.61,3.05-1.95,6.75-3.07c12.18-3.69,22.3-13.1,29.38-27.52
	c5.73-11.58,6.55-15.16,7.37-29.57c2.15-42.9-20.47-69.71-58.13-69.41L143.82,563.73L143.82,563.73z M162.86,675.91
	c-10.56,5.12-25.9,6.14-35.91,2.46c-10.35-3.8-20.37-14.55-24.88-26.72c-5.01-13.31-4.3-37.86,1.43-48.92
	c9.21-17.6,21.4-25.7,39.2-25.7c26.41,0,41.43,16.17,43.39,46.57c1.55,25.37-6.95,44.41-23.21,52.3L162.86,675.91z M537.92,600.38
	c-9.11,0-16.08,3.69-20.77,10.95l-3.68,5.75v-14.95H497.7v89.66h15.75v-28.66c0-26.21,0.33-29.27,3.99-36.44
	c5.05-9.83,13.73-14.74,22.12-12.39l5.63,1.64V600.4h-7.28V600.38L537.92,600.38z M445.32,599.55c-3.09,0-6.36,0.41-9.62,1.13
	c-21.09,5.51-32.98,25.7-32.25,46.47c0,17.39,3.38,26.09,11.77,35.21c17.19,14.11,32.74,15.23,53.73,7.66
	c3.58-1.53,7.48-3.29,7.48-3.29v-14.11l-7.48,3.87c-16.98,7.39-29.77,7.39-40.02-1.32c-6.54-6.65-9.41-14.64-10.74-23.74h63.55
	v-12.09c0-24.65-14.83-40.21-36.43-39.81H445.32L445.32,599.55z M419.62,638.87c0,0,2.35-15.37,11.06-21.41
	c4.19-2.96,9-4.39,13.71-4.39c4.72,0,9.42,1.53,13.31,4.5c7.98,6.14,9.32,21.18,9.32,21.18h-47.39L419.62,638.87L419.62,638.87
	L419.62,638.87z M39.64,622.7c-17.09-10.35-24.67-17.82-23.74-26.62c2.65-24.35,32.74-20.98,49.41-11.77l0.12-16.38
	c0,0-9.21-3.99-22.42-4.2c-20.26-0.31-33.35,6.34-39.49,19.86c-9.01,19.95-1.03,35,27.82,51.78c16.2,9.42,23.35,17.6,23.35,26.52
	c0,18.43-22.22,24.86-45.14,13.3c-4.72-2.35-8.71-4.31-8.92-4.31c-0.82,5.22-0.4,17.72-0.4,17.72s7.04,2.96,17.6,5
	c26.19,5.22,50.03-7.06,52.28-27.02c1.96-18.73-4.81-28.55-30.48-43.89C39.64,622.68,39.64,622.7,39.64,622.7z M677.42,599.34
	c-3.08,0-6.34,0.42-9.74,1.14c-21.07,5.52-32.93,25.7-32.12,46.48c0,17.37,3.37,25.98,11.76,35.09
	c17.19,14.12,32.74,15.26,53.83,7.68c3.57-1.53,7.45-3.26,7.45-3.26v-14.13l-7.46,3.9c-17.02,7.37-29.81,7.37-40.02-1.34
	c-6.57-6.64-9.42-14.53-10.75-23.74h63.45v-12.09c0-24.53-14.84-40.1-36.43-39.69L677.42,599.34L677.42,599.34z M651.71,638.66
	c0,0,2.37-15.35,11.07-21.5c4.18-2.97,8.99-4.4,13.7-4.4c4.69,0,9.42,1.53,13.31,4.51c7.98,6.14,9.32,21.29,9.32,21.29h-47.38
	L651.71,638.66L651.71,638.66z M362.82,622.9c-17.09-10.33-24.65-17.82-23.73-26.62c2.65-24.36,32.74-20.98,49.41-11.77l0.12-16.38
	c0,0-9.21-3.99-22.42-4.18c-20.26-0.3-33.35,6.34-39.5,19.86c-9,19.95-0.92,35,27.84,51.78c16.17,9.41,23.33,17.49,23.33,26.41
	c0,18.43-22.2,24.96-45.13,13.3c-4.69-2.35-8.68-4.28-8.92-4.28c-0.82,5.22-0.4,17.72-0.4,17.72s6.96,2.85,17.49,5
	c26.22,5.23,50.07-7.04,52.31-26.99c1.95-18.64-4.81-28.46-30.4-43.81L362.82,622.9L362.82,622.9z M770.03,600.16
	c-9.11,0-16.16,3.7-20.77,10.96l-3.69,5.73v-14.93h-15.76v89.64h15.75v-28.66c0-26.2,0.32-29.27,3.99-36.43
	c5.05-9.82,13.73-14.74,22.12-12.38l5.63,1.64v-15.57L770.03,600.16L770.03,600.16z M237.48,622.38v-57.11h-15.89v126.49h66.83
	v-14.94h-50.94L237.48,622.38L237.48,622.38z M604.96,640.18l-13.1,34.08L579.27,640l-12.79-37.98h-16.27
	c10.54,29.88,22,60.28,33.57,89.75c5.01,0.12,10.03,0,15.04,0l17.69-44.41l18.01-45.33h-15.55c0,0-6.87,18-14.02,38.17
	L604.96,640.18L604.96,640.18z M406.05,520.13c3.81,0,6.99-1.22,9.62-3.84c2.59-2.59,3.95-5.63,3.95-9.44
	c0-3.81-1.36-6.99-3.95-9.44c-2.62-2.45-5.65-3.67-9.44-3.67c-3.85,0-7.03,1.23-9.62,3.81c-2.62,2.59-3.81,5.77-3.81,9.44
	c0,3.85,1.22,7.03,3.81,9.44c2.45,2.45,5.63,3.67,9.44,3.67V520.13L406.05,520.13z M397.66,498.45c2.27-2.27,5.04-3.32,8.57-3.32
	c3.32,0,6.09,1.05,8.39,3.32c2.27,2.27,3.5,5.04,3.5,8.39c0,3.36-1.22,6.26-3.5,8.53c-2.31,2.27-5.07,3.36-8.39,3.36
	c-3.37,0-6.12-1.05-8.39-3.36c-2.27-2.27-3.5-5.18-3.5-8.53C394.34,503.48,395.39,500.72,397.66,498.45z M403.31,508.07h1.54
	c1.09,0,2.15,1.05,3.06,3.04l1.84,4.12h2.88l-2.27-4.58c-0.93-1.83-1.84-2.9-2.9-3.2c1.35-0.31,2.41-0.77,3.18-1.68
	c0.77-0.79,1.05-1.85,1.05-3.06c0-1.4-0.44-2.45-1.36-3.22c-1.05-0.87-2.73-1.35-4.9-1.35h-4.86v17.08h2.45v-7.17L403.31,508.07
	L403.31,508.07z M370.61,504.43h1.96c1.41,0,2.41,0.29,2.95,0.71c0.53,0.42,0.67,0.96,0.67,1.96c0,1.81-1.12,2.67-3.21,2.67h-2.41
	v-5.33H370.61L370.61,504.43z M12.26,506.54c0-5.94-0.17-10.37-0.31-12.97h0.14c0.61,3.08,1.36,5.37,1.98,6.89l22.73,50.77h3.81
	L63.33,500c0.61-1.4,1.23-3.5,1.98-6.42h0.17c-0.45,5.07-0.61,9.48-0.61,12.99v44.81h7.78v-66.61h-9.76L42,531.11
	c-0.77,1.84-1.84,4.58-3.2,8.22h-0.32c-0.45-1.8-1.52-4.55-3.04-7.9l-20.42-46.81H4.65v66.61h7.48v-44.65
	C12.14,506.58,12.26,506.54,12.26,506.54z M89.7,506.67h6.72v41.49H89.7V506.67z M85.8,496.47c1.28,0,2.38-0.43,3.21-1.28
	c0.85-0.84,1.41-1.93,1.41-3.21c0-1.25-0.42-2.38-1.4-3.21c-0.87-0.85-1.97-1.29-3.24-1.29c-1.25,0-2.37,0.43-3.21,1.29
	c-0.85,0.83-1.41,1.96-1.41,3.21c0,1.4,0.43,2.37,1.41,3.21c0.97,0.85,1.96,1.28,3.21,1.28C85.79,496.47,85.8,496.47,85.8,496.47z
	 M144.28,549.07v-7.31c-3.67,2.75-7.62,4.11-11.71,4.11c-4.89,0-8.86-1.68-11.77-4.89c-2.88-3.18-4.42-7.61-4.42-13.11
	c0-5.77,1.54-10.35,4.72-13.85c3.06-3.36,7.03-5.04,11.89-5.04c3.97,0,7.78,1.23,11.29,3.67v-7.78c-3.2-1.68-6.85-2.45-10.98-2.45
	c-7.62,0-13.57,2.45-18.01,7.17c-4.41,4.72-6.68,11.14-6.68,18.88c0,6.89,1.98,12.68,6.09,17.1c4.28,4.54,9.76,6.85,16.47,6.85
	C136.36,552.28,140.61,551.2,144.28,549.07z M163.5,526.95c0-5.47,1.22-9.9,3.5-12.94c2.13-2.74,4.72-4.12,7.78-4.12
	c2.59,0,4.42,0.47,5.77,1.54v-7.94c-1.05-0.45-2.57-0.61-4.54-0.61c-2.75,0-5.19,0.92-7.34,2.62c-2.27,1.8-4.09,4.55-5.16,8.04
	h-0.17v-9.74h-7.61v47.56h7.62v-24.41H163.5z M207.26,552.3c7.17,0,12.94-2.31,17.22-6.89c4.27-4.55,6.4-10.67,6.4-18.29
	c0-7.78-1.96-13.72-5.94-18.15c-3.95-4.42-9.44-6.56-16.61-6.56s-12.94,2.13-17.22,6.26c-4.58,4.55-6.99,10.96-6.99,19.2
	c0,7.17,1.96,13.11,6.09,17.54c4.27,4.58,9.91,6.87,17.06,6.87L207.26,552.3L207.26,552.3z M196.42,513.55
	c2.9-3.06,6.72-4.58,11.43-4.58c4.9,0,8.57,1.52,11.3,4.58c2.74,3.2,4.11,7.76,4.11,13.87c0,5.8-1.22,10.37-3.81,13.43
	c-2.59,3.2-6.4,4.89-11.44,4.89c-4.89,0-8.69-1.7-11.59-4.89c-2.88-3.22-4.27-7.62-4.27-13.43
	C191.86,521.65,193.38,516.93,196.42,513.55z M264.26,548.16c2.9-2.59,4.44-5.77,4.44-9.76c0-3.5-1.23-6.4-3.5-8.69
	c-1.85-1.83-4.72-3.5-8.86-5.18c-3.67-1.54-5.95-2.9-7.17-3.97c-1.22-1.22-1.98-2.74-1.98-4.89c0-1.98,0.77-3.5,2.27-4.72
	c1.54-1.22,3.5-1.82,6.12-1.82c4.11,0,7.62,1.08,10.84,3.37v-7.62c-3.08-1.54-6.42-2.27-10.23-2.27c-4.89,0-9.02,1.35-12.06,3.95
	c-3.2,2.59-4.72,5.95-4.72,9.9c0,3.5,1.05,6.4,3.04,8.53c1.68,1.82,4.55,3.67,8.53,5.33c3.81,1.68,6.4,3.2,7.78,4.42
	c1.36,1.23,1.98,2.75,1.98,4.55c0,4.44-3.04,6.73-8.99,6.73c-4.58,0-8.69-1.5-12.36-4.55v8.21c3.32,2,7.31,2.9,11.71,2.9
	c5.65-0.3,10.07-1.68,13.11-4.42L264.26,548.16L264.26,548.16z M300.56,502.42c-7.17,0-12.94,2.13-17.22,6.26
	c-4.55,4.55-6.99,10.96-6.99,19.2c0,7.17,1.98,13.11,6.08,17.54c4.28,4.58,9.91,6.87,17.08,6.87c7.34,0,12.94-2.31,17.22-6.89
	c4.28-4.54,6.42-10.66,6.42-18.29c0-7.78-1.99-13.72-5.95-18.15c-4.12-4.42-9.62-6.56-16.61-6.56L300.56,502.42L300.56,502.42z
	 M315.35,527.42c0,5.8-1.22,10.37-3.81,13.43c-2.59,3.2-6.4,4.89-11.44,4.89c-4.9,0-8.69-1.7-11.59-4.89
	c-2.88-3.22-4.27-7.62-4.27-13.43c0-6.12,1.52-10.84,4.58-14.02c2.88-3.04,6.7-4.58,11.43-4.58c4.72,0,8.51,1.54,11.26,4.58
	c2.45,3.36,3.81,7.92,3.81,14.02H315.35L315.35,527.42z M335.94,551.22h7.61v-41.17h11.14v-6.4h-11.14v-7.34
	c0-6.68,2.59-10.03,7.94-10.03c1.8,0,3.64,0.45,5,1.22v-6.87c-1.36-0.61-3.2-0.75-5.49-0.75c-4.11,0-7.46,1.22-10.21,3.81
	c-3.2,3.04-4.89,6.99-4.89,12.35v7.8h-8.04v6.4h8.04v41.02L335.94,551.22z M367.19,538.24c0,9.3,4.11,14.04,12.5,14.04
	c3.04,0,5.33-0.49,7.17-1.57v-6.54c-1.4,1.05-3.06,1.54-4.89,1.54c-2.59,0-4.41-0.61-5.47-2c-1.08-1.36-1.7-3.67-1.7-6.85v-26.84
	h12.06v-6.4h-12.06V489.6c-2.62,0.91-5.19,1.68-7.62,2.45v11.57h-8.22v6.4h8.22v28.2L367.19,538.24z M797.25,601.81
	c-1.74-1.64-3.79-2.46-6.34-2.46c-2.58,0-4.72,0.82-6.46,2.58c-1.74,1.73-2.56,3.87-2.56,6.34c0,2.56,0.82,4.69,2.55,6.34
	c1.74,1.64,3.87,2.47,6.46,2.47c2.55,0,4.69-0.82,6.46-2.56c1.73-1.76,2.64-3.79,2.64-6.34c-0.09-2.58-1.02-4.72-2.76-6.36
	L797.25,601.81z M796.43,613.9c-1.53,1.53-3.38,2.23-5.63,2.23c-2.23,0-4.08-0.7-5.63-2.23c-1.53-1.55-2.35-3.49-2.35-5.75
	c0-2.23,0.7-4.08,2.25-5.63c1.53-1.52,3.37-2.23,5.73-2.23c2.23,0,4.09,0.71,5.63,2.23c1.53,1.55,2.35,3.4,2.35,5.63
	C798.78,610.52,798.08,612.35,796.43,613.9z M791.83,608.67c0.92-0.21,1.64-0.62,2.15-1.13c0.52-0.53,0.71-1.25,0.71-2.06
	c0-0.92-0.29-1.64-0.92-2.15c-0.7-0.59-1.84-0.9-3.29-0.9h-3.26v11.45h1.64v-4.81h1.02c0.71,0,1.41,0.7,2.04,2.04l1.22,2.76h1.95
	l-1.53-3.08c-0.53-1.34-1.14-1.95-1.76-2.15L791.83,608.67L791.83,608.67z M790.71,607.64h-1.76v-3.87h1.44
	c1.02,0,1.74,0.19,2.15,0.5c0.41,0.3,0.5,0.7,0.5,1.43c0,1.33-0.82,1.94-2.35,1.94L790.71,607.64L790.71,607.64z M505.18,518.41
	h1.43v-11.47h3.79v-1.43h-9.01v1.43h3.79L505.18,518.41L505.18,518.41z M513.86,509.8c0-1.12,0-2.03-0.08-2.55
	c0.09,0.61,0.31,1.02,0.4,1.33l4.4,9.83h0.7l4.41-9.93c0.12-0.3,0.21-0.7,0.41-1.23c-0.09,1.02-0.09,1.84-0.09,2.46v8.69h1.53
	v-12.89h-1.84l-3.99,8.9c-0.09,0.32-0.41,0.94-0.61,1.64h-0.12c-0.08-0.41-0.29-0.82-0.59-1.53l-3.99-9.01h-2.07v12.91h1.44v-8.61
	L513.86,509.8L513.86,509.8z"/>
</svg>
